<mxfile host="app.diagrams.net" modified="2023-08-25T14:22:44.922Z" agent="Mozilla/5.0 (X11; Linux x86_64; rv:103.0) Gecko/20100101 Firefox/103.0" etag="A3139lSrHmJ5oYdYPhow" version="21.6.9" type="github">
  <diagram id="R2lEEEUBdFMjLlhIrx00" name="Page-1">
    <mxGraphModel dx="1434" dy="718" grid="1" gridSize="10" guides="1" tooltips="1" connect="1" arrows="1" fold="1" page="1" pageScale="1" pageWidth="850" pageHeight="1100" math="0" shadow="0" extFonts="Permanent Marker^https://fonts.googleapis.com/css?family=Permanent+Marker">
      <root>
        <mxCell id="0" />
        <mxCell id="1" parent="0" />
        <mxCell id="528tzqtagbymmaCdKPGc-3" style="edgeStyle=orthogonalEdgeStyle;rounded=0;orthogonalLoop=1;jettySize=auto;html=1;exitX=1;exitY=0.5;exitDx=0;exitDy=0;entryX=0;entryY=0.5;entryDx=0;entryDy=0;" edge="1" parent="1" source="528tzqtagbymmaCdKPGc-1" target="528tzqtagbymmaCdKPGc-2">
          <mxGeometry relative="1" as="geometry" />
        </mxCell>
        <mxCell id="528tzqtagbymmaCdKPGc-4" value="1" style="edgeLabel;html=1;align=center;verticalAlign=middle;resizable=0;points=[];" vertex="1" connectable="0" parent="528tzqtagbymmaCdKPGc-3">
          <mxGeometry x="-0.0222" relative="1" as="geometry">
            <mxPoint as="offset" />
          </mxGeometry>
        </mxCell>
        <mxCell id="528tzqtagbymmaCdKPGc-1" value="FLORICULTURA" style="swimlane;whiteSpace=wrap;html=1;" vertex="1" parent="1">
          <mxGeometry x="20" y="60" width="200" height="80" as="geometry" />
        </mxCell>
        <mxCell id="528tzqtagbymmaCdKPGc-9" style="edgeStyle=orthogonalEdgeStyle;rounded=0;orthogonalLoop=1;jettySize=auto;html=1;exitX=1;exitY=0.5;exitDx=0;exitDy=0;" edge="1" parent="1" source="528tzqtagbymmaCdKPGc-2">
          <mxGeometry relative="1" as="geometry">
            <mxPoint x="440" y="100" as="targetPoint" />
          </mxGeometry>
        </mxCell>
        <mxCell id="528tzqtagbymmaCdKPGc-10" value="N" style="edgeLabel;html=1;align=center;verticalAlign=middle;resizable=0;points=[];" vertex="1" connectable="0" parent="528tzqtagbymmaCdKPGc-9">
          <mxGeometry x="-0.208" relative="1" as="geometry">
            <mxPoint as="offset" />
          </mxGeometry>
        </mxCell>
        <mxCell id="528tzqtagbymmaCdKPGc-2" value="TEM" style="rhombus;whiteSpace=wrap;html=1;" vertex="1" parent="1">
          <mxGeometry x="310" y="60" width="80" height="80" as="geometry" />
        </mxCell>
        <mxCell id="528tzqtagbymmaCdKPGc-15" style="edgeStyle=orthogonalEdgeStyle;rounded=0;orthogonalLoop=1;jettySize=auto;html=1;exitX=1;exitY=0.5;exitDx=0;exitDy=0;entryX=0;entryY=0.5;entryDx=0;entryDy=0;" edge="1" parent="1" source="528tzqtagbymmaCdKPGc-5" target="528tzqtagbymmaCdKPGc-14">
          <mxGeometry relative="1" as="geometry" />
        </mxCell>
        <mxCell id="528tzqtagbymmaCdKPGc-17" value="1" style="edgeLabel;html=1;align=center;verticalAlign=middle;resizable=0;points=[];" vertex="1" connectable="0" parent="528tzqtagbymmaCdKPGc-15">
          <mxGeometry x="-0.0889" relative="1" as="geometry">
            <mxPoint as="offset" />
          </mxGeometry>
        </mxCell>
        <mxCell id="528tzqtagbymmaCdKPGc-5" value="CLIENTE" style="swimlane;whiteSpace=wrap;html=1;" vertex="1" parent="1">
          <mxGeometry x="440" y="60" width="200" height="130" as="geometry" />
        </mxCell>
        <mxCell id="528tzqtagbymmaCdKPGc-12" value="TEL" style="text;html=1;align=center;verticalAlign=middle;resizable=0;points=[];autosize=1;strokeColor=none;fillColor=none;" vertex="1" parent="528tzqtagbymmaCdKPGc-5">
          <mxGeometry x="65" y="75" width="50" height="30" as="geometry" />
        </mxCell>
        <mxCell id="528tzqtagbymmaCdKPGc-8" value="RG" style="text;html=1;align=center;verticalAlign=middle;resizable=0;points=[];autosize=1;strokeColor=none;fillColor=none;" vertex="1" parent="1">
          <mxGeometry x="510" y="88" width="40" height="30" as="geometry" />
        </mxCell>
        <mxCell id="528tzqtagbymmaCdKPGc-11" value="NOME" style="text;html=1;align=center;verticalAlign=middle;resizable=0;points=[];autosize=1;strokeColor=none;fillColor=none;" vertex="1" parent="1">
          <mxGeometry x="500" y="108" width="60" height="30" as="geometry" />
        </mxCell>
        <mxCell id="528tzqtagbymmaCdKPGc-13" value="END" style="text;html=1;align=center;verticalAlign=middle;resizable=0;points=[];autosize=1;strokeColor=none;fillColor=none;" vertex="1" parent="1">
          <mxGeometry x="505" y="158" width="50" height="30" as="geometry" />
        </mxCell>
        <mxCell id="528tzqtagbymmaCdKPGc-19" style="edgeStyle=orthogonalEdgeStyle;rounded=0;orthogonalLoop=1;jettySize=auto;html=1;entryX=0.71;entryY=0;entryDx=0;entryDy=0;entryPerimeter=0;" edge="1" parent="1" source="528tzqtagbymmaCdKPGc-14" target="528tzqtagbymmaCdKPGc-16">
          <mxGeometry relative="1" as="geometry" />
        </mxCell>
        <mxCell id="528tzqtagbymmaCdKPGc-20" value="N" style="edgeLabel;html=1;align=center;verticalAlign=middle;resizable=0;points=[];" vertex="1" connectable="0" parent="528tzqtagbymmaCdKPGc-19">
          <mxGeometry x="-0.0709" y="1" relative="1" as="geometry">
            <mxPoint as="offset" />
          </mxGeometry>
        </mxCell>
        <mxCell id="528tzqtagbymmaCdKPGc-14" value="COMPRA" style="rhombus;whiteSpace=wrap;html=1;" vertex="1" parent="1">
          <mxGeometry x="730" y="85" width="80" height="80" as="geometry" />
        </mxCell>
        <mxCell id="528tzqtagbymmaCdKPGc-16" value="PRODUTO" style="swimlane;whiteSpace=wrap;html=1;" vertex="1" parent="1">
          <mxGeometry x="630" y="290" width="200" height="120" as="geometry" />
        </mxCell>
        <mxCell id="528tzqtagbymmaCdKPGc-23" value="PREÃ‡O" style="text;html=1;align=center;verticalAlign=middle;resizable=0;points=[];autosize=1;strokeColor=none;fillColor=none;" vertex="1" parent="528tzqtagbymmaCdKPGc-16">
          <mxGeometry x="55" y="48" width="70" height="30" as="geometry" />
        </mxCell>
        <mxCell id="528tzqtagbymmaCdKPGc-22" value="TIPO" style="text;html=1;align=center;verticalAlign=middle;resizable=0;points=[];autosize=1;strokeColor=none;fillColor=none;" vertex="1" parent="528tzqtagbymmaCdKPGc-16">
          <mxGeometry x="65" y="30" width="50" height="30" as="geometry" />
        </mxCell>
        <mxCell id="528tzqtagbymmaCdKPGc-24" value="QUANTIDADE" style="text;html=1;align=center;verticalAlign=middle;resizable=0;points=[];autosize=1;strokeColor=none;fillColor=none;" vertex="1" parent="1">
          <mxGeometry x="670" y="358" width="100" height="30" as="geometry" />
        </mxCell>
      </root>
    </mxGraphModel>
  </diagram>
</mxfile>
